# xmcd
#
# Track frame offsets:
#       150
#       15545
#       29970
#       42360
#       62750
#       77242
#       90347
#       110250
#       120910
#       140660
#       153997
#       171490
#
# Disc length: 2484 seconds
#
# Revision: 2
# Processed by: cddbd v1.5PL3 Copyright (c) Steve Scherf et al.
# Submitted via: CD-DA_X-Tractor v0.24
#
DISCID=9a09b20c
DTITLE=Alby Pool - Alby Pool
DYEAR=2004
DGENRE=
TTITLE0=I've Convinced Everybody But Me
TTITLE1=Sometimes She Forgets
TTITLE2=Gotta Get Outta The Rain
TTITLE3=The Chair
TTITLE4=Somebody Else's Love Song
TTITLE5=Check 1,2
TTITLE6=I Never Go Around Mirrors
TTITLE7=Stone In My Boot
TTITLE8=Please Don't Ask
TTITLE9=Where Do You Think You're Coming From
TTITLE10=To My Rescue
TTITLE11=Headin' West
EXTD=
EXTT0=
EXTT1=
EXTT2=
EXTT3=
EXTT4=
EXTT5=
EXTT6=
EXTT7=
EXTT8=
EXTT9=
EXTT10=
EXTT11=
PLAYORDER=
